<svg width="281" height="281" viewBox="0 0 281 281" fill="none" xmlns="http://www.w3.org/2000/svg">
<path d="M140.896 280.354C218.17 280.354 280.813 217.711 280.813 140.437C280.813 63.163 218.17 0.52002 140.896 0.52002C63.622 0.52002 0.979004 63.163 0.979004 140.437C0.979004 217.711 63.622 280.354 140.896 280.354Z" fill="url(#paint0_linear_0_1)"/>
<path d="M140.896 258.686C206.203 258.686 259.145 205.744 259.145 140.437C259.145 75.1299 206.203 22.188 140.896 22.188C75.5888 22.188 22.647 75.1299 22.647 140.437C22.647 205.744 75.5888 258.686 140.896 258.686Z" fill="black" stroke="black" stroke-miterlimit="10"/>
<path d="M212.167 241.833L139.667 189L68.667 242.946L96.333 158L24 105.333H113L139.667 20.333L167.334 105.333L254.667 106.333L184.334 157L212.167 241.833Z" fill="white"/>
<path d="M213.167 242.833L140.667 190L69.667 242.946L97.333 159L25 106.333H114L140.667 21.333L168.334 106.333H255.667L185.334 158L213.167 242.833Z" fill="url(#paint1_linear_0_1)"/>
<defs>
<linearGradient id="paint0_linear_0_1" x1="230.837" y1="33.252" x2="50.9584" y2="247.623" gradientUnits="userSpaceOnUse">
<stop stop-color="white"/>
<stop offset="0.1943" stop-color="#E3E3E3"/>
<stop offset="0.6109" stop-color="#9D9C9C"/>
<stop offset="0.9879" stop-color="#595757"/>
</linearGradient>
<linearGradient id="paint1_linear_0_1" x1="209.123" y1="67.2783" x2="65.0034" y2="239.033" gradientUnits="userSpaceOnUse">
<stop stop-color="#7E9BFF"/>
<stop offset="0.9879" stop-color="#001972"/>
</linearGradient>
</defs>
</svg>
